<?xml version="1.0" encoding="UTF-8"?>
<svg version="1.1" xmlns="http://www.w3.org/2000/svg" width="192" height="192">
<path d="M0 0 C63.36 0 126.72 0 192 0 C192 63.36 192 126.72 192 192 C128.64 192 65.28 192 0 192 C0 128.64 0 65.28 0 0 Z " fill="#FDFEFE" transform="translate(0,0)"/>
<path d="M0 0 C1.76307495 0.0009668 1.76307495 0.0009668 3.56176758 0.00195312 C12.74733721 0.15906888 20.35666609 1.59274122 28.6875 5.5 C28.6875 6.16 28.6875 6.82 28.6875 7.5 C29.6775 7.7784375 29.6775 7.7784375 30.6875 8.0625 C35.04471624 10.15033278 38.22349527 13.16846199 41.6875 16.5 C42.28949219 17.07621094 42.89148438 17.65242188 43.51171875 18.24609375 C56.82207801 32.1546714 58.29532861 48.74057815 57.98828125 67.01953125 C57.48522266 81.33910437 53.26860134 92.13282679 44.6875 103.5 C43.9965625 104.428125 43.305625 105.35625 42.59375 106.3125 C35.043573 115.55301513 24.21582349 121.58174238 12.6875 124.5 C12.09839844 124.68175781 11.50929688 124.86351562 10.90234375 125.05078125 C-2.91549487 127.85334111 -20.22189934 125.08838038 -32.12109375 117.7734375 C-47.37473041 106.75818131 -56.17756337 92.33073217 -59.6875 73.859375 C-62.64137018 55.28020293 -59.07680407 37.07840146 -48.3125 21.5 C-35.95530926 5.53963622 -19.57877346 -0.10077001 0 0 Z " fill="#1EAA9E" transform="translate(99.3125,32.5)"/>
<path d="M0 0 C7.95597545 7.39216617 12.38474094 16.16451773 12.94921875 27.01171875 C12.98339232 29.04661473 12.99314627 31.08204408 12.98046875 33.1171875 C12.97474854 34.18018066 12.96902832 35.24317383 12.96313477 36.33837891 C12.78308214 44.23765728 11.72647446 50.51107836 7.48046875 57.3046875 C6.96097656 58.201875 6.44148438 59.0990625 5.90625 60.0234375 C2.06215779 66.11663728 -2.20240887 69.90643785 -8.51953125 73.3046875 C-9.25300781 73.70558594 -9.98648438 74.10648437 -10.7421875 74.51953125 C-16.24536607 77.24685608 -21.41445553 78.04977828 -27.51953125 78.3046875 C-27.06601335 71.27515998 -25.39894038 65.7197432 -22.51953125 59.3046875 C-21.85953125 59.3046875 -21.19953125 59.3046875 -20.51953125 59.3046875 C-20.43703125 58.7271875 -20.35453125 58.1496875 -20.26953125 57.5546875 C-19.18932466 54.31406773 -18.43937086 53.18172725 -15.51953125 51.3046875 C-12.984375 51.453125 -12.984375 51.453125 -10.08203125 51.8671875 C-5.45434369 52.52221216 -5.45434369 52.52221216 -1.33203125 50.2421875 C0.77433696 46.82841833 1.15043802 45.24075696 0.48046875 41.3046875 C-0.30202217 38.8439339 -0.30202217 38.8439339 -2.51953125 37.3046875 C-5.52025269 36.53914032 -8.4238167 36.13644214 -11.51953125 36.3046875 C-14.7254385 37.93558015 -14.7254385 37.93558015 -15.00390625 40.625 C-15.0915625 41.55054688 -15.17921875 42.47609375 -15.26953125 43.4296875 C-16.11495669 48.91429621 -17.86148917 51.20914542 -21.69921875 55.046875 C-25.25089736 59.45217594 -26.76067672 64.98759731 -28.51953125 70.3046875 C-28.84953125 70.3046875 -29.17953125 70.3046875 -29.51953125 70.3046875 C-29.99965016 55.687734 -29.30786514 40.222778 -24.51953125 26.3046875 C-23.26140625 26.0571875 -22.00328125 25.8096875 -20.70703125 25.5546875 C-18.10891343 24.87751849 -16.61965672 24.38054013 -14.45703125 22.7421875 C-13.0052847 18.96764647 -13.34478082 15.15608447 -14.51953125 11.3046875 C-18.19047035 8.85739477 -21.25430047 8.48247434 -25.51953125 9.3046875 C-28.26566119 11.21651018 -28.26566119 11.21651018 -29.51953125 14.3046875 C-29.37267737 18.56345 -28.89131412 20.7470132 -26.51953125 24.3046875 C-26.69140625 26.29296875 -26.69140625 26.29296875 -27.26953125 28.6171875 C-30.1369976 41.45603683 -30.98866786 54.20074372 -31.51953125 67.3046875 C-34.01021034 64.81400841 -34.15211298 63.16167873 -34.89453125 59.7421875 C-35.80844841 55.77559857 -36.84134368 52.44430789 -38.76953125 48.8671875 C-41.19443707 43.92689429 -40.34983058 39.52498558 -39.48828125 34.22265625 C-39.2377391 31.21191734 -39.2377391 31.21191734 -41.23828125 28.953125 C-44.24924208 26.77739645 -45.99620444 26.65391997 -49.609375 26.86328125 C-51.78980628 27.22562746 -51.78980628 27.22562746 -54.08203125 29.3046875 C-56.12844541 33.57546487 -55.63084988 35.71123716 -54.51953125 40.3046875 C-53.3137469 42.10422377 -53.3137469 42.10422377 -51.51953125 43.3046875 C-49.37162196 43.62068939 -49.37162196 43.62068939 -47.08203125 43.5546875 C-43.34733745 43.90519274 -42.81770013 43.96622553 -40.20703125 46.9296875 C-35.92453674 56.52089639 -33.73593335 66.83494896 -34.51953125 77.3046875 C-45.14824123 76.2145634 -53.03458871 70.71998076 -59.70703125 62.6796875 C-62.81385996 58.40156775 -64.26501548 53.77877232 -65.7578125 48.74609375 C-66.28833148 46.38108376 -66.28833148 46.38108376 -67.51953125 45.3046875 C-69.0371022 30.74488102 -68.63767167 17.21741831 -59.2109375 5.4140625 C-43.62546195 -11.21692857 -18.40648941 -14.50208256 0 0 Z " fill="#F4FCFB" transform="translate(125.51953125,60.6953125)"/>
<path d="M0 0 C3.48825925 0.92832706 4.94573896 2.59022598 6.9375 5.515625 C7.33128802 9.12534855 7.10208984 11.88469728 6.1875 15.390625 C5.8728462 19.32379746 7.04474359 21.32467915 8.7421875 24.80859375 C15.15591937 39.33381005 15.15591937 39.33381005 12.9375 45.515625 C12.59171232 47.51350938 12.25606451 49.51321951 11.9375 51.515625 C11.6075 51.515625 11.2775 51.515625 10.9375 51.515625 C10.79054688 50.11763672 10.79054688 50.11763672 10.640625 48.69140625 C9.39969415 38.11140101 6.99698206 28.41061253 2.9375 18.515625 C2.33421875 18.56203125 1.7309375 18.6084375 1.109375 18.65625 C-5.3425 18.947625 -5.3425 18.947625 -8.5625 17.015625 C-10.64562658 13.54374736 -11.49770407 10.57234866 -11.0625 6.515625 C-8.91738862 1.43171103 -5.32877367 -0.44406447 0 0 Z " fill="#1FAB9D" transform="translate(80.0625,86.484375)"/>
<path d="M0 0 C3.02921527 2.58591547 3.84825878 4.08955268 4.5 8 C3.88466097 11.69203416 2.58383614 13.34016868 0 16 C-3.44766011 17.72383005 -6.98765936 17.28924018 -10.625 16.25 C-13.1582846 15.70590626 -13.1582846 15.70590626 -15.25 17.75 C-17.17334381 19.96533124 -17.17334381 19.96533124 -18 23 C-18.66 23 -19.32 23 -20 23 C-20.48212214 24.56159059 -20.96055873 26.12431928 -21.4375 27.6875 C-21.70433594 28.55761719 -21.97117187 29.42773438 -22.24609375 30.32421875 C-22.96344529 32.87025921 -23.517541 35.4003423 -24 38 C-24.99 37.34 -25.98 36.68 -27 36 C-22.79784781 20.46477069 -22.79784781 20.46477069 -17.375 15.6875 C-14.24260254 12.14294498 -14.11391966 9.13919658 -13.65234375 4.5234375 C-13 2 -13 2 -11.22265625 0.1640625 C-7.43553588 -1.81935028 -4.00204742 -1.19694262 0 0 Z " fill="#22AB9D" transform="translate(123,97)"/>
<path d="M0 0 C3.3 0 6.6 0 10 0 C8 2 8 2 4.875 2.125 C3.92625 2.08375 2.9775 2.0425 2 2 C-1.10669348 16.40976977 -1.98201225 31.31954504 -3 46 C-3.33 46 -3.66 46 -4 46 C-7.59204422 31.25825052 -4.69788732 14.09366195 0 0 Z " fill="#4CAEA5" transform="translate(99,85)"/>
<path d="M0 0 C2 2 2 2 2.1875 5.25 C2 9 2 9 1.25 11.875 C0.9353462 15.80817246 2.10724359 17.80905415 3.8046875 21.29296875 C10.21841937 35.81818505 10.21841937 35.81818505 8 42 C7.65421232 43.99788438 7.31856451 45.99759451 7 48 C6.67 48 6.34 48 6 48 C5.85304688 46.60201172 5.85304688 46.60201172 5.703125 45.17578125 C4.46219415 34.59577601 2.05948206 24.89498753 -2 15 C-2.62648438 15.03480469 -3.25296875 15.06960937 -3.8984375 15.10546875 C-4.71570313 15.13253906 -5.53296875 15.15960938 -6.375 15.1875 C-7.18710938 15.22230469 -7.99921875 15.25710937 -8.8359375 15.29296875 C-9.55007812 15.19628906 -10.26421875 15.09960938 -11 15 C-11.66 14.01 -12.32 13.02 -13 12 C-9.37 12.66 -5.74 13.32 -2 14 C-2 13.01 -2 12.02 -2 11 C-1.34 11 -0.68 11 0 11 C0 7.37 0 3.74 0 0 Z " fill="#53B4AA" transform="translate(85,90)"/>
<path d="M0 0 C6.77647929 8.06989057 6.43477485 19.43078708 6.25 29.4375 C6.24484375 30.58154297 6.2396875 31.72558594 6.234375 32.90429688 C6.18907193 37.74889432 6.07889937 42.26116695 5 47 C4.67 47 4.34 47 4 47 C4.03480469 45.88367188 4.06960937 44.76734375 4.10546875 43.6171875 C4.41467448 28.8057524 2.48124817 14.57432178 0 0 Z " fill="#5BBBB2" transform="translate(151,64)"/>
<path d="M0 0 C0.33 0 0.66 0 1 0 C1 2.97 1 5.94 1 9 C1.66 9.33 2.32 9.66 3 10 C1.47005208 11.20442708 -0.05989583 12.40885417 -1.58984375 13.61328125 C-3.27155077 15.05683091 -3.27155077 15.05683091 -4 18 C-4.66 18 -5.32 18 -6 18 C-6.48212214 19.56159059 -6.96055873 21.12431928 -7.4375 22.6875 C-7.70433594 23.55761719 -7.97117187 24.42773438 -8.24609375 25.32421875 C-8.96344529 27.87025921 -9.517541 30.4003423 -10 33 C-10.99 32.34 -11.98 31.68 -13 31 C-8.84768212 15.64900662 -8.84768212 15.64900662 -3.3125 10.5 C-0.10332837 7.03062526 -0.23633566 4.64793458 0 0 Z " fill="#58B6AA" transform="translate(109,102)"/>
<path d="M0 0 C4.69375318 4.69375318 4.24896897 13.47866852 4.27734375 19.7902832 C4.26832031 20.66386475 4.25929687 21.53744629 4.25 22.4375 C4.24613281 23.35039795 4.24226562 24.2632959 4.23828125 25.20385742 C4.1560209 31.61845058 3.63363127 37.77178079 2 44 C1.34 44 0.68 44 0 44 C-0.33 44.66 -0.66 45.32 -1 46 C-0.08404081 40.37339357 -0.08404081 40.37339357 0.52685547 37.65917969 C1.04122101 34.76832854 1.12952037 32.0762666 1.1328125 29.140625 C1.13474609 27.46613281 1.13474609 27.46613281 1.13671875 25.7578125 C1.13285156 24.60023437 1.12898437 23.44265625 1.125 22.25 C1.12886719 21.10789062 1.13273438 19.96578125 1.13671875 18.7890625 C1.12942212 12.44099833 0.84346824 6.29254084 0 0 Z " fill="#EDFDFD" transform="translate(155,71)"/>
<path d="M0 0 C1.82398315 -0.00580078 1.82398315 -0.00580078 3.68481445 -0.01171875 C13.0751431 0.10845342 20.73583895 1.44425864 29.25 5.4375 C29.25 5.7675 29.25 6.0975 29.25 6.4375 C24.3294074 6.03417274 19.95426579 5.40830117 15.25 3.90625 C8.80953394 2.10564884 2.70852433 2.09815762 -3.9375 2.25 C-5.08025391 2.26353516 -6.22300781 2.27707031 -7.40039062 2.29101562 C-10.18410963 2.3259577 -12.96678664 2.37500989 -15.75 2.4375 C-10.92771145 -0.77735903 -5.67391316 0.01216517 0 0 Z " fill="#3BADA0" transform="translate(98.75,32.5625)"/>
<path d="M0 0 C7 1 7 1 10.26171875 1.5234375 C20.58693455 2.8397137 30.88046724 2.40124506 41 0 C40 2 40 2 37.75610352 3.10620117 C33.19658845 4.58484274 28.69427117 4.33686051 23.9375 4.3125 C22.39727173 4.31056641 22.39727173 4.31056641 20.82592773 4.30859375 C13.48627977 4.21562061 6.94802288 3.51025343 0 1 C0 0.67 0 0.34 0 0 Z " fill="#B4E5E1" transform="translate(78,155)"/>
<path d="M0 0 C0.33 0 0.66 0 1 0 C1.02929977 3.35414799 1.0468989 6.70826253 1.0625 10.0625 C1.07087891 11.00544922 1.07925781 11.94839844 1.08789062 12.91992188 C1.10581103 18.0630768 0.89259611 22.93258427 0 28 C-0.66 28 -1.32 28 -2 28 C-2.33 28.66 -2.66 29.32 -3 30 C-2.07305936 24.30593607 -2.07305936 24.30593607 -1.5 21.90625 C-0.77373455 17.68483207 -0.63194722 13.46215112 -0.4375 9.1875 C-0.39431641 8.30384766 -0.35113281 7.42019531 -0.30664062 6.50976562 C-0.20108464 4.34000377 -0.10008929 2.1700209 0 0 Z " fill="#C4EEEB" transform="translate(157,87)"/>
<path d="M0 0 C0.66 0 1.32 0 2 0 C1.35812082 5.13503344 0.31727753 9.9943454 -1 15 C-1.99 14.34 -2.98 13.68 -4 13 C-3.52140759 11.39566191 -3.04210442 9.79153584 -2.5625 8.1875 C-2.29566406 7.29417969 -2.02882813 6.40085937 -1.75390625 5.48046875 C-1.19612127 3.64526945 -0.60655425 1.81966274 0 0 Z " fill="#4DB1A6" transform="translate(100,120)"/>
<path d="M0 0 C1.2380014 3.57644848 0.74926071 6.33694766 0 10 C2.64 10 5.28 10 8 10 C4.5980513 12.09350689 1.94727588 12.17942163 -2 12 C-1.85831863 10.56208484 -1.71148957 9.1246763 -1.5625 7.6875 C-1.48128906 6.88699219 -1.40007812 6.08648437 -1.31640625 5.26171875 C-1 3 -1 3 0 0 Z " fill="#BBEBE9" transform="translate(100,127)"/>
<path d="M0 0 C0 4.29 0 8.58 0 13 C-2.49505962 10.50494038 -2.35948376 9.32671112 -2.625 5.875 C-2.69976562 4.96492188 -2.77453125 4.05484375 -2.8515625 3.1171875 C-2.90054688 2.41851562 -2.94953125 1.71984375 -3 1 C-1 0 -1 0 0 0 Z " fill="#C2F4F0" transform="translate(94,115)"/>
<path d="M0 0 C-1.2608012 1.03319813 -2.53403258 2.05124379 -3.8125 3.0625 C-4.87404297 3.91521484 -4.87404297 3.91521484 -5.95703125 4.78515625 C-6.63121094 5.18605469 -7.30539063 5.58695313 -8 6 C-8.99 5.67 -9.98 5.34 -11 5 C-10.67 4.34 -10.34 3.68 -10 3 C-8.68 3 -7.36 3 -6 3 C-6 2.01 -6 1.02 -6 0 C-3.50907189 -1.24546405 -2.58919267 -0.7767578 0 0 Z " fill="#3DAEA2" transform="translate(137,144)"/>
<path d="M0 0 C-3.19990508 2.74277578 -6.00499382 4.6302836 -10 6 C-9.6875 4.125 -9.6875 4.125 -9 2 C-5.5647952 -0.29013653 -4.014669 -0.17842973 0 0 Z " fill="#3DAEA1" transform="translate(120,96)"/>
<path d="M0 0 C5.43654822 -0.5177665 5.43654822 -0.5177665 8 0 C8.99 0.99 9.98 1.98 11 3 C6.71 3 2.42 3 -2 3 C-1.34 2.01 -0.68 1.02 0 0 Z " fill="#50B4A7" transform="translate(74,87)"/>
<path d="M0 0 C0.66 0.33 1.32 0.66 2 1 C-0.75473082 4.06081203 -2.99574049 5.89882863 -7 7 C-9.15625 6.54296875 -9.15625 6.54296875 -11 6 C-9.21385682 4.96953278 -7.42089982 3.95086764 -5.625 2.9375 C-4.62726563 2.36902344 -3.62953125 1.80054688 -2.6015625 1.21484375 C-1.74304688 0.81394531 -0.88453125 0.41304687 0 0 Z " fill="#CAF0EE" transform="translate(130,148)"/>
<path d="M0 0 C-1.98 0.66 -3.96 1.32 -6 2 C-6 2.66 -6 3.32 -6 4 C-6.66 4 -7.32 4 -8 4 C-8.33 4.99 -8.66 5.98 -9 7 C-8.67 4.69 -8.34 2.38 -8 0 C-2.25 -1.125 -2.25 -1.125 0 0 Z " fill="#D3F3F2" transform="translate(109,87)"/>
<path d="M0 0 C2.97 1.98 2.97 1.98 6 4 C5.67 4.66 5.34 5.32 5 6 C3.35 5.67 1.7 5.34 0 5 C0 3.35 0 1.7 0 0 Z " fill="#2CAA9A" transform="translate(70,128)"/>
<path d="M0 0 C0.33 0.66 0.66 1.32 1 2 C0.22265625 3.9453125 0.22265625 3.9453125 -0.9375 6.125 C-1.31777344 6.84945312 -1.69804687 7.57390625 -2.08984375 8.3203125 C-2.39019531 8.87460938 -2.69054687 9.42890625 -3 10 C-4.11665191 6.28574649 -3.79401325 4.49360475 -2 1 C-1.34 0.67 -0.68 0.34 0 0 Z " fill="#4FB6AB" transform="translate(153,117)"/>
<path d="M0 0 C2.3125 -0.25 2.3125 -0.25 5 0 C6.8125 2 6.8125 2 8 4 C7.67 4.66 7.34 5.32 7 6 C5.83054208 5.19152271 4.66449539 4.37810888 3.5 3.5625 C2.8503125 3.11003906 2.200625 2.65757813 1.53125 2.19140625 C1.0259375 1.79824219 0.520625 1.40507813 0 1 C0 0.67 0 0.34 0 0 Z " fill="#3FAEA2" transform="translate(120,57)"/>
<path d="M0 0 C0.33 0.66 0.66 1.32 1 2 C-0.4375 4.625 -0.4375 4.625 -2 7 C-3.32 6.67 -4.64 6.34 -6 6 C-4.02 4.02 -2.04 2.04 0 0 Z " fill="#3CB0A5" transform="translate(59,46)"/>
<path d="M0 0 C-1.65 0.33 -3.3 0.66 -5 1 C-5 1.66 -5 2.32 -5 3 C-6.98 3.33 -8.96 3.66 -11 4 C-7.64918101 0.31409911 -4.96535219 -1.77334007 0 0 Z " fill="#57B9AD" transform="translate(78,37)"/>
<path d="M0 0 C0.53625 0.226875 1.0725 0.45375 1.625 0.6875 C-3.79038462 3.76442308 -3.79038462 3.76442308 -6.75 3.375 C-7.554375 3.0346875 -7.554375 3.0346875 -8.375 2.6875 C-2.95961538 -0.38942308 -2.95961538 -0.38942308 0 0 Z " fill="#45B1A6" transform="translate(121.375,152.3125)"/>
<path d="M0 0 C0.33 0 0.66 0 1 0 C1.1953125 6.0546875 1.1953125 6.0546875 1 8 C0.34 8.66 -0.32 9.32 -1 10 C-1.99 9.67 -2.98 9.34 -4 9 C-3.525625 8.443125 -3.05125 7.88625 -2.5625 7.3125 C-0.87604004 4.81653926 -0.41046893 2.9553763 0 0 Z " fill="#DAF8F6" transform="translate(127,103)"/>
<path d="M0 0 C0.625 1.8125 0.625 1.8125 1 4 C0.01 5.485 0.01 5.485 -1 7 C-1.99 6.67 -2.98 6.34 -4 6 C-2.68 4.02 -1.36 2.04 0 0 Z " fill="#4CB6A9" transform="translate(131,120)"/>
<path d="M0 0 C0.99 0.33 1.98 0.66 3 1 C2.34 1 1.68 1 1 1 C0.7525 1.639375 0.505 2.27875 0.25 2.9375 C-1 5 -1 5 -3.125 5.75 C-4.053125 5.87375 -4.053125 5.87375 -5 6 C-3.35 4.02 -1.7 2.04 0 0 Z " fill="#D5F6F3" transform="translate(110,112)"/>
<path d="M0 0 C2.05078125 0.03255208 4.1015625 0.06510417 6.15234375 0.09765625 C6.15234375 0.42765625 6.15234375 0.75765625 6.15234375 1.09765625 C5.05921875 1.38640625 3.96609375 1.67515625 2.83984375 1.97265625 C-0.8877947 2.91658829 -0.8877947 2.91658829 -3.84765625 5.09765625 C-2.72914438 0.14424653 -2.72914438 0.14424653 0 0 Z " fill="#DDF9F8" transform="translate(73.84765625,85.90234375)"/>
</svg>
